<?xml version="1.0" standalone="no"?>
<!DOCTYPE svg PUBLIC "-//W3C//DTD SVG 20010904//EN"
 "http://www.w3.org/TR/2001/REC-SVG-20010904/DTD/svg10.dtd">
<svg version="1.0" xmlns="http://www.w3.org/2000/svg"
 width="1024.000000pt" height="1024.000000pt" viewBox="0 0 1024.000000 1024.000000"
 preserveAspectRatio="xMidYMid meet">

<g transform="translate(0.000000,1024.000000) scale(0.100000,-0.100000)"
fill="#0c445d" stroke="none">
<path d="M6065 7760 c-201 -17 -440 -91 -655 -203 -67 -35 -271 -162 -310
-194 -8 -7 -53 -41 -100 -75 -223 -163 -379 -302 -759 -674 -119 -116 -238
-230 -266 -255 -27 -24 -52 -46 -55 -49 -64 -70 -327 -255 -485 -341 -77 -42
-83 -44 -165 -44 -125 0 -175 30 -315 190 -94 107 -164 204 -215 297 -22 42
-57 91 -76 107 -71 63 -213 77 -305 31 -56 -29 -119 -127 -119 -185 0 -114
164 -366 380 -586 147 -150 304 -251 479 -308 77 -25 231 -29 301 -7 192 59
446 198 644 351 48 37 229 186 236 194 3 3 52 49 110 101 58 52 157 145 220
206 63 61 151 144 194 185 44 41 93 88 111 104 145 139 379 329 530 430 240
160 441 253 619 284 132 24 369 5 504 -39 212 -70 414 -220 528 -392 112 -167
171 -423 144 -620 -29 -217 -117 -379 -268 -490 -89 -66 -135 -82 -232 -83
-80 0 -89 2 -136 32 -82 53 -114 135 -79 202 24 47 71 79 156 106 129 40 204
87 233 144 18 36 28 136 20 205 -8 68 -36 114 -84 138 -41 20 -175 24 -229 7
-266 -85 -435 -246 -515 -493 -34 -104 -36 -245 -5 -349 79 -267 243 -411 527
-467 75 -14 146 -13 227 6 39 9 82 18 98 21 15 3 30 9 33 14 3 5 12 9 20 9 22
0 161 69 239 118 113 72 227 199 298 332 40 75 86 181 98 225 4 17 14 55 22
85 33 122 41 198 40 370 -1 250 -29 368 -135 590 -88 183 -279 403 -444 512
-78 51 -199 113 -289 147 -33 13 -69 27 -80 31 -33 14 -175 48 -265 64 -106
18 -306 26 -425 16z"/>
<path d="M4853 5095 c-67 -12 -182 -45 -228 -64 -11 -5 -45 -19 -75 -31 -55
-22 -97 -40 -198 -86 -29 -13 -55 -24 -57 -24 -3 0 -95 -45 -205 -99 -202
-100 -375 -176 -440 -193 -19 -5 -53 -14 -75 -19 -83 -22 -315 0 -349 32 -6 5
-18 9 -28 9 -10 0 -26 4 -36 9 -9 5 -62 27 -117 49 -100 41 -198 86 -505 234
-91 44 -186 84 -212 90 -96 22 -223 -35 -263 -118 -25 -53 -32 -152 -12 -190
24 -47 47 -62 197 -133 36 -17 83 -42 105 -54 22 -13 63 -33 91 -45 28 -12 80
-35 115 -51 35 -16 93 -41 128 -56 35 -14 111 -48 168 -76 58 -27 107 -49 109
-49 2 0 26 -10 52 -21 183 -82 293 -109 440 -109 124 0 256 33 390 96 164 78
234 110 327 152 129 57 204 92 335 154 189 91 243 111 365 139 75 18 237 18
290 0 86 -28 254 -95 335 -133 206 -98 292 -138 296 -138 2 0 41 -17 86 -39
124 -58 219 -101 223 -101 3 0 30 -12 61 -26 270 -123 577 -123 859 1 17 7 64
27 105 44 148 62 248 111 585 285 44 22 104 52 133 65 31 14 65 40 80 60 23
30 27 44 27 105 0 61 -4 79 -31 126 -18 32 -49 68 -73 85 -39 27 -50 30 -120
30 l-77 0 -290 -146 c-159 -80 -338 -167 -399 -193 -60 -27 -117 -52 -125 -56
-41 -20 -164 -43 -235 -43 -72 0 -195 23 -235 44 -8 4 -49 20 -90 35 -96 35
-211 87 -640 291 -116 55 -231 104 -305 128 -134 44 -335 57 -482 30z"/>
<path d="M4915 4291 c-64 -9 -179 -50 -310 -111 -140 -66 -276 -131 -410 -195
-268 -128 -482 -216 -630 -256 -96 -27 -215 -15 -320 31 -22 9 -83 34 -135 55
-120 48 -355 148 -438 186 -35 16 -65 29 -67 29 -2 0 -41 17 -87 38 -163 75
-170 77 -238 76 -136 -2 -240 -92 -240 -209 0 -95 48 -150 202 -227 578 -291
663 -328 925 -409 133 -41 226 -59 301 -59 58 0 168 23 238 51 16 6 84 31 152
54 67 24 173 68 235 98 61 30 186 91 277 135 446 216 491 232 670 232 84 0
162 -18 222 -51 10 -5 22 -9 28 -9 9 0 160 -69 410 -188 295 -140 351 -165
420 -188 41 -14 84 -29 95 -34 170 -77 428 -103 593 -60 170 45 324 107 617
250 116 56 244 118 285 137 41 20 105 55 141 78 78 51 99 87 99 173 0 122 -58
190 -186 221 -71 17 -92 9 -412 -145 -95 -46 -175 -84 -177 -84 -3 0 -33 -13
-67 -29 -35 -15 -94 -40 -133 -55 -38 -15 -79 -31 -90 -36 -36 -16 -139 -48
-194 -60 -81 -19 -202 -2 -296 40 -11 5 -40 16 -65 24 -42 14 -136 51 -205 81
-16 7 -66 27 -110 45 -44 18 -117 50 -163 71 -45 21 -84 39 -86 39 -2 0 -51
23 -109 50 -58 28 -108 50 -110 50 -3 0 -43 18 -89 39 -45 22 -130 58 -188 81
-92 36 -117 42 -200 45 -52 2 -122 0 -155 -4z"/>
<path d="M4940 3450 c-70 -12 -147 -41 -308 -116 -41 -19 -76 -34 -78 -34 -2
0 -68 -31 -147 -69 -154 -75 -317 -151 -322 -151 -2 0 -43 -18 -92 -41 -88
-41 -146 -68 -246 -113 -132 -59 -201 -71 -342 -57 -88 9 -182 31 -252 61 -13
6 -33 14 -45 19 -88 35 -138 56 -173 71 -22 10 -76 32 -119 50 -44 17 -132 56
-195 87 -285 137 -275 133 -350 133 -107 0 -173 -36 -210 -115 -41 -86 -23
-185 44 -244 33 -29 448 -239 560 -283 27 -11 72 -30 100 -42 27 -13 97 -40
155 -60 58 -20 112 -40 120 -45 26 -14 282 -78 355 -89 125 -18 305 13 454 80
25 11 60 26 76 33 237 103 302 134 745 348 208 100 236 109 346 108 86 0 99
-3 215 -50 127 -50 367 -158 473 -211 32 -17 62 -30 67 -30 4 0 54 -22 111
-49 57 -27 144 -66 193 -86 50 -20 104 -43 120 -50 108 -46 196 -64 347 -71
179 -9 329 13 453 65 11 5 74 30 140 57 159 63 213 88 451 205 110 54 204 99
208 99 4 0 31 15 60 34 69 44 95 87 102 168 5 56 3 69 -23 117 -40 76 -106
121 -178 121 -46 0 -72 -9 -172 -60 -138 -70 -317 -154 -388 -182 -27 -11 -66
-26 -85 -35 -61 -26 -73 -31 -145 -58 -38 -15 -79 -30 -90 -35 -103 -43 -245
-63 -351 -50 -90 11 -266 71 -420 140 -22 11 -63 28 -90 38 -27 11 -78 33
-114 50 -36 16 -85 39 -110 50 -25 11 -89 41 -142 66 -53 25 -99 46 -101 46
-3 0 -47 20 -98 43 -163 76 -182 84 -264 110 -91 29 -179 39 -245 27z"/>
</g>
</svg>
