<svg xmlns="http://www.w3.org/2000/svg" width="24" height="24" fill="none" viewBox="0 0 24 24" id="menu-veggie-burger">
  <circle fill="#0c445d" cx="5" cy="10" r="0.8"/>
  <path fill="#0c445d" d="M7.8 9.25C7.38579 9.25 7.05 9.58579 7.05 10 7.05 10.4142 7.38579 10.75 7.8 10.75H19C19.4142 10.75 19.75 10.4142 19.75 10 19.75 9.58579 19.4142 9.25 19 9.25H7.8z"/>
  <path fill="#0c445d" d="M5 13.25C4.58579 13.25 4.25 13.5858 4.25 14 4.25 14.4142 4.58579 14.75 5 14.75H13C13.4142 14.75 13.75 14.4142 13.75 14 13.75 13.5858 13.4142 13.25 13 13.25H5z"/>
</svg>
